<svg width="32" height="32" viewBox="0 0 32 32" fill="none" xmlns="http://www.w3.org/2000/svg">
  <path d="M12 26C8 26 6 23 7 20C10 20 12 23 12 26Z" fill="#166534" stroke="#14532D" stroke-width="1.2"/>
  <path d="M20 26C24 26 26 23 25 20C22 20 20 23 20 26Z" fill="#166534" stroke="#14532D" stroke-width="1.2"/>
  <line x1="16" y1="21" x2="16" y2="28" stroke="#14532D" stroke-width="2" stroke-linecap="round"/>
  <path d="M7 16C5 12 9 6 13 9C11 13 9 15 7 16Z" fill="#DC2626"/>
  <path d="M25 16C27 12 23 6 19 9C21 13 23 15 25 16Z" fill="#DC2626"/>
  <path d="M10 20C8 14 11 8 16 5C21 8 24 14 22 20C19 22 13 22 10 20Z" fill="#EF4444"/>
  <path d="M12 20C11 15 13 10 16 7C19 10 21 15 20 20C18 21.5 14 21.5 12 20Z" fill="#B91C1C"/>
  <line x1="16" y1="20" x2="16" y2="10" stroke="#F59E0B" stroke-width="1.5" stroke-linecap="round"/>
  <circle cx="16" cy="9" r="1.5" fill="#F59E0B"/>
  <line x1="16" y1="20" x2="13.5" y2="11.5" stroke="#F59E0B" stroke-width="1.3" stroke-linecap="round"/>
  <circle cx="13" cy="11" r="1.3" fill="#F59E0B"/>
  <line x1="16" y1="20" x2="18.5" y2="11.5" stroke="#F59E0B" stroke-width="1.3" stroke-linecap="round"/>
  <circle cx="19" cy="11" r="1.3" fill="#F59E0B"/>
</svg>